<svg width="189" height="235" viewBox="0 0 189 235" fill="none" xmlns="http://www.w3.org/2000/svg">
<path d="M14.3992 110.55C15.4943 110.158 16.5894 110.354 17.5281 109.805C17.0588 107.569 16.5112 105.413 16.1592 103.217C15.8463 101.295 15.6508 99.3733 15.5334 97.4517C15.377 94.4321 15.2596 91.3733 15.4943 88.3536C15.6507 86.3144 16.2765 84.3928 16.8632 82.432C16.9414 82.2359 17.0588 82.0399 17.1761 81.8438C17.6845 81.0987 18.4668 81.1379 18.9361 81.9614C19.249 82.5105 19.249 83.1379 19.249 83.7654C19.249 85.4517 19.249 87.1379 19.1708 88.785C19.0534 91.7654 19.5228 94.6674 19.8748 97.6086C20.1876 100.158 20.6179 102.667 21.0872 105.177C21.3219 106.393 21.6348 107.569 21.9476 108.864C22.769 108.628 23.5903 108.668 24.4117 108.354C24.0205 106.315 23.5512 104.315 23.1992 102.315C22.769 99.7655 22.6517 97.1772 22.4952 94.5498C22.3779 92.1576 22.417 89.8046 22.6125 87.4125C22.769 85.7262 23.1992 84.1183 23.6294 82.5105C23.7468 82.1183 23.9032 81.7654 24.0988 81.4124C24.3334 80.981 24.4117 80.3144 25.1548 80.432C25.6632 80.5104 26.2499 81.2163 26.289 81.883C26.3281 83.6869 26.4063 85.5301 26.2499 87.2948C26.0934 89.0987 26.289 90.9027 26.4454 92.7066C26.7583 95.7655 27.1885 98.8243 27.697 101.844C27.9317 103.452 28.3228 105.02 28.753 106.589C29.105 107.922 29.2223 109.256 29.2223 110.589C29.2223 111.53 28.401 112.197 27.2277 112.589C25.1157 113.295 22.9254 113.844 20.7743 114.354C20.0312 114.511 20.0703 114.785 20.1876 115.413C20.3832 116.354 20.7352 117.256 20.8134 118.236C20.8916 119.06 21.2828 119.805 20.6961 120.628C20.5396 120.864 20.7352 121.374 20.8134 121.766C21.4392 124.707 22.065 127.609 22.6517 130.55C23.2774 133.53 23.825 136.511 24.4508 139.452C24.529 139.923 24.6854 140.393 24.8028 140.825C25.1939 140.982 25.3894 140.746 25.6241 140.55C26.5237 139.766 27.6188 139.295 28.6357 138.707C31.921 136.746 34.5414 134.08 37.0054 131.217C39.2739 128.55 41.5814 125.883 43.889 123.217C44.3974 122.628 44.6321 122.158 44.3975 121.334C44.1628 120.589 44.1237 119.766 44.0846 118.981C44.0454 117.648 44.3583 116.315 45.1797 115.217C45.649 114.589 45.649 114.079 45.3752 113.373C45.1406 112.707 45.0232 112.001 44.9841 111.295C44.8277 109.02 45.8055 107.373 47.8001 106.354C48.3086 106.079 48.5041 105.805 48.4259 105.256C48.3086 104.589 48.3086 103.922 48.1521 103.295C47.5263 100.707 47.6437 98.1184 48.1521 95.5302C48.6215 93.2556 48.4259 90.9419 48.0739 88.6674C47.8001 86.8242 47.5263 85.0203 47.6046 83.1379C47.6437 81.6869 47.8392 80.2359 48.2695 78.8242C49.0126 76.3928 49.2081 73.8829 48.7779 71.3731C48.3477 68.9025 48.465 66.4711 48.8561 64.0005C49.2081 61.726 49.3646 59.4515 48.9735 57.1377C48.7779 56.0004 48.817 54.8632 48.9343 53.7259C49.0908 52.471 49.2472 52.5886 47.9175 52.3534C43.6152 51.5298 39.2739 50.6279 35.2063 48.9416C32.8597 48.0004 30.9432 46.5102 29.1441 44.7847C28.5574 44.2356 28.0881 43.6082 27.697 42.9023C26.4845 40.8239 26.4454 38.7062 27.7752 36.667C29.457 34.0787 31.4517 31.8434 34.385 30.5885C35.5583 30.0787 36.6926 29.4904 37.8659 28.9022C37.7094 28.1963 36.7708 28.0787 36.6143 27.3335C36.9272 27.059 37.0446 27.3728 37.2401 27.4904C37.5921 27.8041 37.9441 28.1571 38.3352 28.4708C38.5308 28.6277 38.7654 28.6277 38.9219 28.4708C39.0783 28.3139 38.961 28.1571 38.8828 28.0002C38.7654 27.7649 38.609 27.5688 38.4526 27.3335C38.3352 27.1375 38.2179 26.9022 38.4526 26.7845C38.6872 26.6669 38.8828 26.8237 39.0001 27.0198C39.0392 27.059 39.0392 27.0983 39.0783 27.1375C39.4303 27.4512 39.2739 28.1963 39.8997 28.1963C40.3299 28.1963 40.721 27.961 41.1512 27.8041C42.833 27.3336 44.5148 26.8237 46.2357 26.3531C46.7832 26.1963 47.1743 26.0394 46.8615 25.2943C45.8055 22.51 45.4143 19.5688 45.0623 16.6276C44.9059 15.3727 44.8668 14.0785 44.9841 12.7844C45.0232 12.4707 45.0232 12.157 45.1015 11.8824C45.6881 9.5687 47.4872 8.58831 49.7557 9.37263C50.4597 9.60792 51.0855 10.0393 51.6721 10.5099C53.1583 11.6079 54.4881 12.9413 55.6615 14.3531C56.4437 15.2942 57.2259 16.2746 57.969 17.255C58.2428 17.608 58.4775 17.7649 58.9468 17.608C66.2215 15.2942 73.5353 15.8433 80.8491 17.5295C81.5922 17.6864 82.1006 17.6864 82.5699 17.059C83.1175 16.3531 84.1344 15.9609 84.2908 15.1374C84.4473 14.3138 84.1344 13.4119 83.9779 12.5491C83.3131 8.62751 81.0446 5.84318 77.7984 3.72551C74.8259 1.80393 71.5406 1.45099 68.1379 1.68629C66.5735 1.80394 65.0872 2.11767 63.6401 2.66669C59.5726 4.19611 56.9521 7.09809 55.7006 11.255C55.5832 11.6472 55.4659 12.0001 55.3486 12.3923C55.2312 12.6668 55.0357 12.8236 54.7228 12.7844C54.4099 12.7452 54.2535 12.5099 54.2143 12.2354C54.097 11.6472 54.2144 11.0981 54.3708 10.5491C55.4268 7.01967 57.4215 4.23533 60.785 2.50983C61.1761 2.31375 61.6064 2.19609 61.8801 1.80393C61.6455 1.17648 60.9024 0.901968 60.7068 0C61.3326 0.274512 61.5281 0.705887 61.8801 1.05883C62.1148 1.29413 62.2321 1.76472 62.7015 1.52943C63.2099 1.29413 62.8188 0.941183 62.7015 0.666671C62.6624 0.509807 62.5841 0.352944 62.7015 0.19608C62.897 0.078432 63.0144 0.156865 63.1708 0.313729C63.4055 0.549025 63.3272 1.09805 63.7184 1.13727C64.0312 1.17648 64.3833 0.980401 64.7353 0.901969C69.3113 -0.196079 73.809 -0.117644 78.0721 2.11767C80.1842 3.21572 81.8659 4.82356 83.0784 6.86279C84.2517 8.86281 85.2686 10.902 85.425 13.255C85.425 13.4511 85.5424 13.6864 85.5815 13.8825C86.0508 13.9609 86.2073 13.5687 86.481 13.3727C87.4197 12.6275 88.3193 11.8824 89.3753 11.255C89.8055 11.0197 90.2357 10.7844 90.705 10.6667C93.1299 9.96086 94.8117 10.9805 95.242 13.4511C95.5157 14.9021 95.2811 16.3531 94.9682 17.8041C94.4597 20.1962 93.5993 22.4708 92.6215 24.6669C92.4651 25.0198 92.3086 25.3727 92.1522 25.7257C92.4259 26.0786 92.7779 26.0786 93.1299 26.1963C95.2811 26.9414 97.4713 27.7257 99.4268 28.9022C99.9744 29.2159 100.287 29.0983 100.678 28.7453C101.422 28.0787 102.204 27.4512 103.221 27.1767C102.673 28.1963 101.578 28.7845 100.952 29.6473C101.617 30.7453 102.517 30.1179 103.338 30.0394C103.455 30.5493 102.869 30.5493 102.83 31.0591C104.472 32.2355 105.763 33.8042 106.819 35.6081C107.718 37.0983 108.305 38.7062 108.344 40.4709C108.383 41.9219 107.875 43.1376 106.936 44.1964C105.098 46.3141 102.83 47.7651 100.209 48.667C96.7673 49.8435 93.2473 50.471 89.5708 50.471C89.2579 50.471 88.945 50.3926 88.6322 50.5886C89.1406 52.7847 89.3362 55.02 89.0624 57.2553C88.9842 57.8436 88.8668 58.3926 88.7886 58.9416C88.2802 61.9221 88.5539 64.8633 89.1406 67.7652C89.8055 71.2555 89.8837 74.7849 89.6882 78.3143C89.6491 79.0987 89.6491 79.9222 89.5708 80.7065C89.3362 83.9614 89.7664 87.1379 90.4313 90.3144C90.7833 92.0399 90.9006 93.8047 90.4704 95.5694C90.3139 96.1968 90.3922 96.8635 90.3531 97.491C90.8224 97.6086 90.9788 97.2557 91.1744 97.0596C94.8508 93.2164 99.0748 90.0399 103.494 87.0987C108.383 83.8438 113.429 80.9026 118.982 78.9026C123.558 77.2555 128.252 75.8437 132.906 74.3535C137.638 72.8633 142.332 71.177 146.79 68.9809C148.707 68.079 150.662 67.2947 152.501 66.2358C153.948 65.4123 155.395 64.5103 156.725 63.5299C157.585 62.9025 157.742 62.9417 158.485 63.6476C158.641 63.8044 158.798 63.9613 158.993 64.0789C161.222 65.3731 163.139 67.0593 165.094 68.6672C167.519 70.6672 170.257 72.1966 173.073 73.5692C176.671 75.2947 180.309 76.981 183.868 78.8242C185.315 79.5693 186.684 80.4712 187.935 81.5301C188.209 81.7654 188.483 82.0006 188.678 82.2752C189.187 83.0203 189.109 83.5301 188.327 84.0007C186.801 84.9418 185.159 85.7262 183.516 86.4713C178.862 88.4713 174.286 90.6282 169.788 92.9419C163.647 96.1576 157.077 97.7655 150.154 98.1576C146.126 98.3929 142.058 98.4714 138.03 98.9027C129.894 99.7655 122.15 101.883 114.68 105.217C109.948 107.334 105.646 110.197 101.265 112.864C100.6 113.295 99.8962 113.687 99.2313 114.119C98.4491 114.628 98.8402 115.57 98.4882 116.275C97.9406 117.334 97.3931 118.393 96.4935 119.177C95.8286 119.766 95.8286 119.805 96.5326 120.472C98.5273 122.432 100.326 124.589 102.282 126.589C104.902 129.256 107.288 132.197 110.261 134.55C112.255 136.119 114.563 137.217 116.714 138.55C118.161 139.452 119.647 140.236 121.173 140.982C122.776 141.805 124.262 142.825 125.24 144.433C125.788 145.334 126.257 146.236 126.179 147.335C126.062 149.452 125.358 151.335 123.754 152.746C122.385 153.962 120.586 154.511 118.748 154.119C116.245 153.531 113.663 153.295 111.16 152.589C109.126 152.04 107.21 151.099 105.254 150.354C103.651 149.766 102.086 149.099 100.757 148.001C100.522 147.805 100.131 147.727 99.7397 147.531C100.248 149.766 100.835 151.844 101.109 154.04C101.382 156.04 101.656 158.001 101.93 160.001C102.126 161.531 102.321 163.021 102.478 164.55C102.986 170.041 102.517 175.492 102.047 180.982C101.461 187.649 99.9353 194.158 98.9575 200.786C98.4882 203.806 97.4713 206.747 96.6108 209.688C96.4544 210.237 96.2588 210.786 96.1415 211.335C96.0242 211.962 95.8286 212.59 96.2197 213.217C96.5326 213.766 96.4153 214.433 96.3371 215.021C96.1806 216.355 96.0633 217.727 95.7504 219.061C95.5157 220.198 94.7726 220.825 93.6775 220.943C93.2082 220.982 92.9735 221.139 92.8171 221.57C91.9175 224.041 91.0179 226.512 90.3139 229.061C90.0793 229.923 90.0793 230.786 90.0793 231.688C90.1184 232.786 89.5708 233.374 88.6322 233.806C87.4588 234.316 86.2464 234.394 85.0339 234.355C83.4695 234.316 81.905 234.08 80.3406 233.884C79.5975 233.806 78.9326 233.453 78.2286 233.178C77.5246 232.904 77.2899 232.237 77.2117 231.57C76.8988 229.649 76.5859 227.767 76.625 225.806C76.6641 224.433 76.4295 223.1 76.5468 221.727C76.5859 221.374 76.3513 221.296 76.0775 221.257C75.6082 221.217 75.2561 220.982 75.0606 220.551C74.6304 219.453 74.161 218.315 74.2784 217.1C74.3175 216.747 74.3566 216.394 74.2393 216.08C74.0828 215.453 74.2393 214.904 74.7477 214.551C75.2953 214.159 75.1388 213.766 75.1388 213.217C75.0997 211.923 74.9042 210.668 74.7868 209.413C74.4739 206.708 74.3957 204.002 74.0828 201.296C73.809 198.864 73.7699 196.394 73.6135 193.962C73.5353 193.923 73.4961 193.884 73.457 193.884C72.7921 193.884 72.049 193.688 71.5406 194.041C70.8757 194.472 71.345 195.256 71.3059 195.884C70.9148 201.727 70.9539 207.609 70.4064 213.453C70.3673 213.962 70.4455 214.276 70.9539 214.472C71.1886 214.551 71.3841 214.786 71.4232 215.061C71.5797 216.904 71.7753 218.708 70.9148 220.472C70.7193 220.825 70.5237 221.139 70.0935 221.257C69.5459 221.374 69.5068 221.766 69.5068 222.276C69.5459 224.041 69.5459 225.806 69.5459 227.57C69.5459 229.021 69.2721 230.472 69.0766 231.884C68.9593 232.786 68.4117 233.296 67.6295 233.57C66.1432 234.12 64.5788 234.276 63.0144 234.512C61.4499 234.786 59.9637 234.708 58.4384 234.433C56.7175 234.08 56.1699 233.374 56.3264 231.61C56.4046 230.708 56.0917 229.963 55.8179 229.178C55.0357 227.021 54.1752 224.904 53.3539 222.786C53.0801 222.119 52.7281 221.727 51.9459 221.649C51.0463 221.57 50.4597 220.982 50.1859 220.08C49.5992 218.315 49.4819 216.472 49.2864 214.629C49.2472 214.472 49.2863 214.237 49.3646 214.119C49.873 213.257 49.5601 212.433 49.2472 211.649C48.113 208.59 47.1352 205.492 46.3139 202.355C45.7663 200.315 45.4143 198.237 44.9841 196.158C44.3975 193.335 43.7717 190.472 43.2241 187.649C42.6766 184.747 42.2072 181.845 41.8943 178.903C41.5814 176.276 41.2686 173.648 41.1512 171.021C41.0339 168.433 41.073 165.805 41.3859 163.217C41.6597 161.099 41.777 158.982 42.0117 156.903C42.2463 154.55 42.481 152.158 43.1068 149.844C43.2241 149.491 43.3415 149.099 43.2241 148.668C43.1068 148.707 42.9112 148.668 42.833 148.746C40.8775 150.55 38.4134 151.374 36.0668 152.472C33.6419 153.609 31.1388 154.511 28.4792 154.982C27.6188 155.138 27.6188 155.178 27.8143 156.158C28.5574 159.923 29.2614 163.688 30.0045 167.413C30.7477 171.06 31.5299 174.746 32.2339 178.394C32.977 182.041 33.681 185.727 34.385 189.413C34.9717 192.394 35.5974 195.374 36.1841 198.315C36.9272 201.962 37.6312 205.649 38.3352 209.296C38.3352 209.374 38.3352 209.492 38.3352 209.57C38.5308 210.041 38.961 210.511 38.4526 211.021C37.8659 211.61 37.3966 212.276 36.4579 212.472C35.3628 212.668 34.385 212.394 33.3681 212.002C32.9379 211.845 32.8205 211.492 32.7423 211.061C31.7645 205.531 30.7477 200.002 29.6917 194.472C28.5574 188.59 27.5405 182.707 26.4454 176.825C25.7414 173.021 24.9983 169.217 24.2552 165.413C23.7077 162.55 23.1601 159.727 22.6517 156.864C22.5734 156.354 22.4561 156.119 21.9085 156.001C18.897 155.178 17.3716 152.942 16.8241 150.04C16.5112 148.354 17.2152 146.825 18.3103 145.531C18.7796 144.982 19.249 144.472 19.8748 144.119C20.305 143.883 20.3441 143.57 20.2659 143.099C19.3272 138.589 18.7014 134.001 17.8019 129.452C17.2934 126.942 16.7459 124.472 16.4721 121.923C16.433 121.726 16.4721 121.491 16.2765 121.334C15.4161 120.55 15.3379 119.491 15.2205 118.432C15.1032 117.609 14.8294 116.903 14.5556 116.119C13.2259 116.707 11.8179 116.707 10.449 116.981C9.1583 117.256 7.86763 117.373 6.53785 117.57C6.30319 117.609 6.10764 117.609 5.87297 117.609C4.30853 117.648 3.72185 117.295 3.17429 115.805C2.82229 114.785 2.47029 113.726 2.23563 112.668C1.4534 109.648 0.749403 106.589 0.475625 103.491C0.0454022 98.6282 -0.384813 93.7262 0.592966 88.8634C0.788521 87.9615 0.98407 87.0595 1.25785 86.1575C1.41429 85.5693 1.64896 84.9811 2.07918 84.5105C2.4703 84.0399 2.90052 84.0007 3.29163 84.432C3.83919 84.9811 3.99563 85.6477 3.95652 86.3928C3.80007 89.7654 3.68274 93.1772 4.03474 96.5498C4.30852 99.2557 4.77785 101.962 5.12985 104.668C5.44274 107.06 6.10763 109.413 6.57697 111.766C6.73341 112.471 6.92896 112.628 7.67207 112.471C9.8623 112.079 10.0187 111.962 9.5103 109.844C8.92364 107.373 8.37608 104.864 8.14141 102.315C7.71119 97.4518 7.28096 92.5498 8.25874 87.687C8.53252 86.3536 8.76719 84.9811 9.43208 83.7654C9.58852 83.4909 9.70586 83.0987 10.1361 83.0595C10.5272 83.0595 10.9183 83.0203 11.153 83.4909C11.4268 83.9615 11.5441 84.432 11.5441 84.9811C11.505 88.3536 11.2703 91.7654 11.6614 95.138C11.9352 97.6478 12.2481 100.118 12.6392 102.589C13.1476 105.295 13.617 107.883 14.3992 110.55Z" fill="#010101"/>
<path d="M68.0208 4.94116C67.5515 5.5294 67.1212 6.07842 66.6519 6.66666C66.5346 6.78431 66.3781 6.86275 66.1826 6.7451C66.0261 6.62745 65.987 6.47058 66.1044 6.2745C66.5737 5.60783 67.043 4.98038 68.0208 4.94116Z" fill="#222222"/>
<path d="M75.4515 7.4118C74.8257 6.98042 74.3955 6.39217 74.1218 5.7255C74.0435 5.56864 74.0826 5.37255 74.2782 5.29412C74.3955 5.25491 74.552 5.33334 74.6302 5.41178C74.9822 6.00002 75.4124 6.62748 75.4515 7.4118Z" fill="#222222"/>
<path d="M69.8593 6.78453C69.5855 6.15707 69.5464 5.68648 69.7028 5.25511C69.7419 5.09824 69.8984 4.98059 70.0939 5.01981C70.2504 5.05902 70.4068 5.13745 70.4459 5.33353C70.4851 5.80412 70.3286 6.2355 69.8593 6.78453Z" fill="#242424"/>
<path d="M77.1343 213.688C77.0561 212.865 76.9388 212.08 76.8997 211.296C76.7041 207.453 76.313 203.61 75.8436 199.766C75.6481 198.119 75.5699 196.433 75.2179 194.786C75.0614 194.119 75.4134 193.884 76.0001 193.923C76.5868 193.962 77.1343 193.766 77.6819 193.649C77.9557 193.57 78.1512 193.374 78.1512 193.1C78.1903 192.747 77.9948 192.472 77.6428 192.394C77.2126 192.276 76.7823 192.198 76.3521 192.198C73.5361 192.002 70.7201 192.08 67.9041 192.355C67.4348 192.394 67.0436 192.59 66.9654 193.1C66.9263 193.649 67.3565 193.727 67.7476 193.806C68.1779 193.884 68.6081 193.884 69.0774 193.923C69.8988 194.002 69.9379 194.002 69.8988 194.864C69.7032 197.374 69.5076 199.884 69.273 202.394C69.1948 203.139 69.1165 203.884 69.1556 204.629C69.2339 207.413 68.7254 210.159 68.8819 212.943C68.921 213.57 68.6863 213.806 68.0605 213.766C65.1663 213.688 62.2721 213.649 59.3779 213.217C57.0312 212.865 54.6454 212.786 52.2987 212.551C51.7121 212.472 51.3601 212.355 51.1645 211.727C50.3041 208.708 49.3654 205.766 48.5441 202.747C47.9965 200.668 47.6054 198.551 47.1752 196.433C46.5103 193.413 45.8063 190.433 45.2196 187.413C44.633 184.551 44.0854 181.727 43.9681 178.786C43.8507 176.472 43.6161 174.119 43.3032 171.805C43.0685 170.158 42.9903 168.472 43.1076 166.786C43.4596 162.08 43.6161 157.335 44.3201 152.668C44.6721 150.276 44.8285 147.844 45.4543 145.491C45.6107 144.864 45.8454 144.472 46.5494 144.433C47.801 144.393 48.9743 144.119 50.1867 143.805C50.3823 143.766 50.617 143.727 50.8125 143.727C51.9467 143.648 52.025 143.648 52.1032 144.746C52.1814 145.374 52.3379 145.962 52.5725 146.511C53.5894 148.903 56.8748 149.178 58.0872 147.727C58.713 146.982 58.8303 146.04 59.0259 145.178C59.1823 144.472 58.7912 143.491 59.3387 143.06C59.8081 142.707 60.6685 142.786 61.3725 142.746C64.3059 142.589 67.2392 142.236 70.1725 142.315C72.9885 142.393 75.8046 142.315 78.6206 142.354C80.1068 142.354 81.593 142.511 83.0792 142.55C83.705 142.589 83.9397 142.864 83.9397 143.452C83.9397 144.276 84.0961 145.099 84.3699 145.884C84.9566 147.413 85.6997 148.08 87.225 148.119C88.5939 148.158 90.0801 147.217 90.5103 145.923C90.745 145.217 91.0188 144.511 91.0188 143.766C91.0188 143.217 91.2926 142.942 91.8401 142.982C93.6001 143.099 95.2819 143.687 97.0419 143.648C97.433 143.648 97.4721 144.04 97.5503 144.315C98.0979 146.119 98.2935 148.001 98.6846 149.844C99.3886 153.335 99.7797 156.864 100.249 160.393C100.562 162.746 100.836 165.099 100.953 167.452C101.07 169.296 100.836 171.139 100.718 172.982C100.562 175.413 100.445 177.805 100.366 180.237C100.288 182.237 99.9361 184.276 99.5841 186.237C98.6846 191.178 97.785 196.08 97.0028 201.021C96.6899 203.021 95.9859 204.943 95.5948 206.904C95.2819 208.276 94.8126 209.61 94.4606 210.982C94.3432 211.453 94.2259 211.766 93.6392 211.806C90.1974 211.963 86.7948 212.708 83.3921 213.178C82.0232 213.374 80.6152 213.531 79.2072 213.453C78.6206 213.531 77.9557 213.61 77.1343 213.688Z" fill="#808285"/>
<path d="M87.0291 47.1377C86.638 49.0201 86.9117 50.9024 87.2246 52.7848C87.4593 54.3142 87.4593 55.8829 87.1464 57.4123C86.4033 61.0594 86.4033 64.7065 87.1464 68.3144C87.8504 71.8046 87.8504 75.334 87.694 78.8635C87.5375 82.9419 87.6939 86.9812 88.5544 90.9812C88.8673 92.4322 88.8673 93.844 88.5935 95.3342C88.2806 97.0989 88.5544 98.8636 88.5935 100.628C88.6717 102.393 88.9846 104.158 88.6717 105.923C88.6717 105.962 88.6326 106.001 88.6717 106.04C89.3757 107.53 88.2024 108.432 87.4593 109.295C86.1295 110.864 84.6433 112.354 83.1571 113.766C80.3802 116.354 77.4077 118.707 74.2397 120.785C73.8095 121.06 73.4966 121.099 73.0664 120.825C71.6975 120.001 70.3677 120.119 69.1944 121.217C68.6859 121.687 68.2948 121.687 67.669 121.452C65.557 120.589 63.6015 119.53 61.8024 118.158C57.9695 115.256 54.2539 112.236 50.8121 108.864C50.5775 108.628 50.2255 108.472 50.3819 108.001C51.0468 106.354 50.6557 104.668 50.3037 103.06C49.7561 100.55 49.8343 98.0793 50.3037 95.5695C50.7339 93.3734 50.5775 91.1773 50.2646 88.9812C50.069 87.4125 49.7561 85.8439 49.7561 84.236C49.717 82.4713 49.9517 80.7458 50.4992 79.0203C51.3206 76.3536 51.4379 73.6477 51.0077 70.9026C50.6557 68.8634 50.7339 66.8634 51.0468 64.8241C51.4379 62.2751 51.477 59.7261 51.0077 57.177C50.8121 56.079 50.8512 54.9809 51.0859 53.8829C51.3988 52.1574 51.9464 50.4711 51.8681 48.4711C53.1588 49.7652 54.5668 50.1573 56.1704 50.0789C58.4779 49.9613 59.8859 48.9809 60.5899 46.7848C60.7464 46.275 60.7073 45.6867 61.5677 46.0397C61.9979 46.1965 62.3499 45.8436 62.389 45.4122C62.4282 44.9416 62.0761 44.7063 61.6459 44.6279C60.0815 44.3142 58.517 44.0396 56.9917 43.7259C55.5055 43.4514 54.0584 43.1377 52.5721 42.8632C51.9855 42.7455 51.9072 42.5102 51.9464 41.9612C52.3375 37.3337 53.4326 33.02 56.5615 29.3729C57.0699 28.7846 57.5784 28.5101 58.3215 28.4709C63.8361 28.1964 69.3117 28.3533 74.8264 28.7454C77.0948 28.9023 79.4024 29.0984 81.6708 29.3729C82.5704 29.4905 83.118 29.8435 83.5873 30.5494C85.3082 33.216 86.3642 36.1572 86.8726 39.2945C86.9899 40.0396 87.0291 40.7847 87.1464 41.5298C87.2637 42.1965 86.99 42.471 86.3642 42.6279C84.3695 43.0593 82.414 43.5298 80.4584 44.0004C79.8717 44.1573 79.2459 44.2357 78.6593 44.471C78.0335 44.7063 77.9553 45.0985 78.5419 45.4906C78.8548 45.6867 78.9331 45.8828 78.9331 46.1965C79.0113 47.726 79.8717 48.6279 81.2797 49.0593C83.0006 49.6083 85.1517 49.5299 87.0291 47.1377Z" fill="white"/>
<path d="M186.488 83.0594C183.946 84.3536 181.443 85.2947 178.979 86.3536C175.733 87.7261 172.565 89.2556 169.436 90.8634C163.608 93.9223 157.389 95.4909 150.858 95.9223C145.734 96.2752 140.572 96.4321 135.448 97.138C127.743 98.236 120.312 100.393 113.233 103.687C108.54 105.844 104.198 108.667 99.8179 111.373C99.5441 111.53 99.3094 111.726 99.0356 111.883C98.7618 112.079 98.5663 112.079 98.3707 111.766C97.8623 110.824 97.041 110.236 96.1023 109.805C95.7894 109.648 95.6329 109.452 95.6721 109.099C95.7112 108.746 95.7112 108.393 95.6721 108.04C95.5547 105.648 94.3032 104.079 92.0347 103.413C90.7441 103.02 90.8614 103.02 90.6658 101.805C90.5094 100.707 90.9005 100.04 91.6827 99.3341C97.6276 93.7262 104.198 89.0203 111.199 84.8634C115.345 82.432 119.843 80.6673 124.38 79.177C129.073 77.6476 133.766 76.1966 138.46 74.6672C142.997 73.177 147.26 71.0985 151.562 69.0201C153.244 68.1966 154.769 67.2162 156.255 66.0789C157.233 65.3338 157.233 65.4122 158.211 66.0789C161.222 68.1181 163.686 70.7848 166.815 72.628C168.732 73.726 170.648 74.7848 172.643 75.726C176.085 77.3339 179.487 78.9417 182.851 80.7065C184.181 81.3731 185.393 82.0006 186.488 83.0594Z" fill="#31C77F"/>
<path d="M97.276 142.001C95.164 142.04 93.3649 141.295 91.4093 141.531C91.0964 140.629 91.1746 139.648 91.0964 138.707C90.7835 134.668 90.1577 130.668 89.7275 126.668C89.6102 125.687 89.5711 124.628 89.1408 123.727C88.9453 123.256 89.1017 123.099 89.4928 122.942C90.9791 122.315 92.5435 121.844 93.9906 121.06C94.3817 120.864 94.5773 121.099 94.7728 121.295C95.4768 122.001 96.2591 122.668 96.924 123.413C98.6448 125.491 100.483 127.491 102.4 129.374C104.512 131.531 106.467 133.844 108.853 135.727C110.769 137.256 112.764 138.629 114.993 139.687C115.971 140.158 116.832 140.864 117.77 141.452C118.983 142.236 120.43 142.511 121.681 143.335C122.464 143.844 123.207 144.393 123.793 145.06C124.888 146.315 125.162 147.766 124.38 149.335C124.302 149.491 124.224 149.648 124.145 149.805C123.441 151.884 121.368 152.629 119.648 152.197C117.34 151.648 114.993 151.413 112.686 150.942C111.121 150.629 109.674 150.04 108.227 149.413C107.601 149.138 106.936 148.864 106.272 148.629C104.472 148.001 102.869 146.982 101.344 145.923C101.265 145.884 101.226 145.805 101.148 145.766C99.3097 145.099 98.9577 143.491 98.6449 141.844C98.5275 141.138 98.2928 140.472 98.0973 139.805C97.98 139.452 97.7453 139.178 97.3151 139.295C96.924 139.413 96.9631 139.727 96.9631 140.04C96.8848 140.629 96.924 141.256 97.276 142.001Z" fill="white"/>
<path d="M45.7656 124.001C47.2518 126.276 49.3638 127.57 51.7496 128.511C52.3753 128.785 52.5709 129.138 52.5318 129.805C52.4145 131.727 52.2971 133.648 52.0624 135.609C51.8669 137.53 51.6713 139.491 51.8278 141.413C51.8669 141.923 51.8278 142.276 51.202 142.276C49.4811 142.236 47.8384 142.825 46.0784 143.06C45.8829 142.315 46.274 141.57 46.0002 140.864C45.8829 140.589 46.0002 140.197 45.57 140.197C45.1789 140.197 45.0224 140.472 44.9442 140.785C44.6313 142.119 44.3184 143.452 44.0838 144.785C43.9664 145.413 43.8491 145.884 43.2233 146.119C43.0669 146.197 42.9104 146.315 42.7931 146.433C39.8598 148.982 36.3007 150.433 32.7806 151.884C30.4731 152.825 28.0091 153.335 25.5842 153.923C25.3104 154.001 25.0366 153.923 24.802 154.08C23.4722 154.903 22.2989 154.354 21.0473 153.844C20.3433 153.57 19.9522 152.982 19.5611 152.393C19.3264 152.001 19.0917 151.57 18.9353 151.099C18.1922 149.021 18.8962 147.021 21.0082 145.531C22.1424 144.746 23.394 144.08 24.6455 143.413C25.2322 143.099 25.8189 142.864 26.3664 142.472C27.4224 141.687 28.5958 141.138 29.73 140.432C33.0935 138.432 35.714 135.609 38.2953 132.746C40.7984 129.883 43.1842 126.981 45.7656 124.001Z" fill="white"/>
<path d="M28.4404 40.0003C28.4404 38.7454 29.0271 37.6865 29.8484 36.7846C31.2955 35.2159 33.0164 34.0002 34.8938 33.0198C37.9836 31.4512 41.3471 30.6669 44.6716 29.9218C45.6102 29.7257 46.588 29.5688 47.5267 29.3727C48.1916 29.2551 48.5827 29.412 48.8956 30.0394C49.5605 31.4904 50.2645 32.9022 51.3205 34.1179C51.6725 34.51 51.4769 34.863 51.3596 35.2159C50.3818 38.314 49.9125 41.4905 49.6778 44.7062C49.5605 46.118 49.7951 47.5298 49.756 48.9415C49.6387 51.4121 49.5604 51.0984 47.5658 50.7063C43.3809 49.8827 39.2351 48.9023 35.2849 47.1376C33.3293 46.2748 31.6084 45.0591 30.1222 43.5297C28.988 42.4317 28.4795 41.216 28.4404 40.0003Z" fill="#808285"/>
<path d="M83.7828 141.178C82.3748 141.099 80.9668 141.06 79.5979 140.903C76.3517 140.589 73.1055 140.707 69.8592 140.707C66.6912 140.668 63.5624 141.099 60.4335 141.452C60.277 141.452 60.0815 141.491 59.925 141.53C59.4557 141.609 59.1819 141.413 59.1819 140.903C59.1819 140.04 59.1037 139.138 59.1428 138.276C59.3383 135.687 59.6512 133.099 59.6903 130.511C59.6903 129.805 60.1597 129.766 60.629 129.648C62.4281 129.256 64.2663 128.942 65.9872 128.354C66.5739 128.158 67.1606 128.001 67.7081 127.766C68.8032 127.295 69.8201 126.942 71.0717 127.373C72.0495 127.726 73.1055 127.373 73.9268 126.668C74.4353 126.236 74.9437 126.079 75.5695 126.04C77.4468 125.844 79.3241 125.648 81.2015 125.295C82.1401 125.138 82.1793 125.177 82.2966 126.04C82.4921 127.57 82.6486 129.099 82.8441 130.628C83.157 133.491 83.6264 136.354 83.7828 139.256C83.861 139.844 83.9002 140.472 83.7828 141.178Z" fill="white"/>
<path d="M10.5658 84.785C10.5658 85.4125 10.6049 86.0792 10.5658 86.7066C10.4094 88.8635 10.5267 91.0204 10.5658 93.1773C10.5658 94.4322 10.7222 95.7263 10.8396 96.9812C11.1525 100.197 11.4654 103.373 12.1303 106.55C12.4431 108.079 12.8734 109.609 13.3036 111.138C13.5383 111.923 13.8903 112.119 14.6725 111.923C15.7285 111.687 16.7845 111.373 17.8796 111.177C18.8965 110.981 19.1311 110.55 18.8574 109.57C18.1143 106.864 17.4885 104.119 17.0192 101.334C16.7454 99.6871 16.628 98.0008 16.5498 96.3538C16.3934 92.6675 16.2369 88.9419 17.0583 85.2948C17.2538 84.3929 17.4494 83.4909 18.1143 82.7066C18.1143 83.2556 18.1143 83.7654 18.1143 84.3144C18.1143 86.8243 18.1143 89.3341 18.1534 91.8439C18.1925 93.4126 18.388 95.0204 18.5445 96.5891C18.74 98.7067 19.0138 100.785 19.3267 102.864C19.6787 105.06 20.3045 107.138 20.8129 109.295C21.0476 110.275 21.5169 110.432 22.4947 110.158C23.1987 109.962 23.9418 109.726 24.6458 109.57C25.1152 109.491 25.3889 109.138 25.7409 108.864C26.2885 108.432 25.7018 108.079 25.6236 107.687C24.9978 104.589 24.1374 101.53 23.8636 98.3538C23.7072 96.6675 23.6289 95.0204 23.5507 93.3341C23.3943 89.8831 23.4725 86.4713 24.4894 83.0988C24.6067 82.7066 24.6458 82.236 25.1543 81.8831C25.3107 82.9027 25.2716 83.8439 25.2325 84.785C25.1543 88.4321 25.2716 92.0792 25.6627 95.7263C25.9365 98.2361 26.2494 100.707 26.6405 103.177C26.8752 104.707 27.3836 106.158 27.7356 107.648C27.9312 108.354 27.892 109.06 27.9312 109.726C27.9703 110.472 27.5792 110.864 26.9143 111.06C24.9587 111.57 23.0814 112.354 21.1649 112.981C20.0698 113.334 19.1703 114.04 18.036 114.236C17.8014 114.275 17.3711 114.432 17.4885 114.824C17.6058 115.177 17.9969 115.06 18.3098 114.981C18.388 114.942 18.4663 114.942 18.5445 114.903C18.9356 114.785 19.1312 114.903 19.1703 115.334C19.3658 116.55 19.5614 117.766 19.8351 118.981C19.9134 119.413 19.796 119.648 19.444 119.844C19.0529 120.04 18.6618 120.236 18.2316 120.354C17.2147 120.668 16.7454 120.354 16.5107 119.334C16.276 118.079 15.8458 116.864 15.6503 115.609C15.5329 114.864 15.1809 114.864 14.7116 114.903C13.9294 114.981 13.1471 115.099 12.3649 115.256C10.2529 115.726 8.1018 115.844 5.95069 116.001C4.42535 116.119 4.42536 116.001 4.03425 114.55C3.40847 112.079 2.86091 109.609 2.27424 107.099C1.84402 105.256 1.57024 103.373 1.41379 101.491C1.17913 98.2753 0.983571 95.0596 1.21824 91.8439C1.33557 89.8831 1.68758 88.0008 2.35247 86.1576C2.39158 86.0007 2.43069 85.8047 2.66535 85.7654C2.8218 86.0792 2.78268 86.4321 2.78268 86.7851C2.78268 89.2949 2.74357 91.8047 2.78268 94.3145C2.82179 95.6086 2.90002 96.8636 3.05647 98.1577C3.40847 101.295 3.68224 104.471 4.34713 107.57C4.69913 109.256 5.16847 110.903 5.59869 112.55C5.83336 113.334 6.53735 113.883 7.28047 113.726C8.25824 113.57 9.27514 113.491 10.2138 113.06C11.348 112.55 11.4263 112.275 11.1134 111.06C10.0574 106.981 9.07959 102.864 8.96225 98.5891C8.92314 96.9812 8.80581 95.3341 8.7667 93.6871C8.68848 91.0988 8.96226 88.589 9.58803 86.0792C9.86181 85.7654 9.97915 85.2556 10.5658 84.785Z" fill="#808285"/>
<path d="M107.21 40.6277C107.288 41.8826 106.78 42.863 105.958 43.765C104.277 45.6081 102.243 46.8631 99.8962 47.6082C96.5327 48.667 93.0127 49.0984 89.5318 49.4905C88.6713 49.6082 88.5931 49.4905 88.7887 48.6278C89.7665 44.0395 89.1407 39.6081 87.8109 35.1767C87.7327 34.9022 87.5371 34.6277 87.8109 34.3139C88.6322 33.4512 89.0625 32.3923 89.61 31.4119C89.8838 30.9414 90.1185 30.8237 90.666 30.9414C94.4598 31.6865 98.2145 32.6669 101.695 34.4708C103.299 35.3336 104.785 36.3532 106.037 37.6865C106.78 38.5493 107.366 39.4512 107.21 40.6277Z" fill="#808285"/>
<path d="M46.6257 116.001C47.6426 116.629 48.2684 117.883 49.7155 117.609C49.7155 116.903 49.2461 116.589 48.9332 116.236C47.8381 114.981 47.0168 113.609 46.7821 111.923C46.6257 110.668 46.8212 109.57 47.799 108.668C48.151 108.354 48.4248 108.315 48.7768 108.707C50.6932 111.099 53.0399 113.021 55.2301 115.138C58.5937 118.393 62.3484 120.982 66.6506 122.864C67.0417 123.021 67.6284 123.099 67.7457 123.491C67.9413 124.119 68.0195 124.785 68.2151 125.413C68.2933 125.648 68.0195 125.766 67.7848 125.844C66.6897 126.354 65.6337 126.903 64.4604 127.021C62.935 127.217 61.4488 127.57 59.9235 127.923C57.1466 128.589 54.487 128.08 52.023 126.746C50.4586 125.923 49.0506 124.942 47.7208 123.687C45.687 121.844 45.1395 118.629 46.6257 116.001Z" fill="#31C77F"/>
<path d="M90.9396 104.707C92.9734 105.099 94.225 106.472 94.3814 108.354C94.4205 108.942 94.1858 109.373 93.873 109.805C93.4818 110.354 93.0907 110.864 92.7387 111.413C92.4649 111.805 92.3867 112.275 92.7779 112.628C93.2472 113.06 93.6774 112.785 94.0685 112.511C94.5378 112.158 94.6943 111.57 95.1636 111.138C95.985 111.687 96.8454 112.158 97.1974 113.256C97.745 115.177 97.041 116.668 95.1636 117.962C93.3645 119.177 91.3307 119.923 89.3752 120.825C85.2685 122.707 80.888 123.609 76.4294 124.197C75.5298 124.315 75.4907 124.315 75.256 123.334C75.1387 122.903 74.552 122.55 74.904 122.04C75.1778 121.687 75.5689 121.452 75.9209 121.217C78.3849 119.452 80.9272 117.766 83.1956 115.766C85.8161 113.452 88.2018 110.942 90.3138 108.158C90.7832 107.57 91.1352 106.942 90.7832 106.079C90.6267 105.648 90.8223 105.177 90.9396 104.707Z" fill="#31C77F"/>
<path d="M35.5579 211.374C34.7365 211.374 34.4237 211.1 34.2672 210.276C33.5241 206.394 32.7419 202.511 31.9988 198.629C31.2948 194.864 30.669 191.1 29.965 187.335C29.3783 184.237 28.7525 181.139 28.205 178.001C27.6183 174.903 27.1099 171.766 26.5232 168.668C26.093 166.237 25.5845 163.845 25.1152 161.413C24.8023 159.844 24.5285 158.315 24.2156 156.746C24.0983 156.237 24.333 156.001 24.7632 155.923C26.6796 155.609 26.3668 155.139 26.7579 157.099C27.3837 160.041 27.9312 162.943 28.5179 165.884C29.261 169.609 30.0041 173.296 30.7472 177.021C31.4903 180.668 32.2725 184.354 32.9765 188.002C33.5632 190.982 34.1499 193.962 34.7365 196.904C35.4797 200.511 36.2619 204.119 37.005 207.727C37.1223 208.198 37.1614 208.668 37.2788 209.139C37.6308 210.355 36.8094 211.374 35.5579 211.374Z" fill="white"/>
<path d="M54.6045 221.727C58.0854 221.727 61.4098 221.727 64.6952 221.727C65.5165 221.727 66.377 221.649 67.1983 221.61C68.3325 221.531 68.3716 221.57 68.2934 222.747C68.2543 223.531 68.2152 224.316 68.0978 225.1C67.785 227.1 67.9023 229.139 67.6676 231.139C67.5894 231.884 67.3938 232.237 66.5334 232.433C64.6561 232.904 62.7396 233.022 60.8232 233.061C60.3147 233.061 59.7672 232.943 59.2587 232.825C57.9681 232.512 57.8507 232.394 57.8116 231.061C57.7725 229.571 57.1076 228.276 56.5992 226.904C56.0516 225.257 55.3476 223.61 54.6045 221.727Z" fill="white"/>
<path d="M91.6827 221.217C91.096 222.668 90.5876 224.002 90.1574 225.296C89.5316 227.296 88.6711 229.217 88.7885 231.374C88.8276 231.962 88.2409 232.198 87.8107 232.276C85.112 232.904 82.4525 232.786 79.7538 232.198C79.0889 232.041 78.9325 231.57 78.8934 231.061C78.6978 229.217 78.5022 227.413 78.3458 225.57C78.2676 224.747 78.1502 223.923 78.072 223.1C77.8765 221.57 77.9156 221.57 79.4018 221.531C80.0667 221.531 80.7316 221.492 81.3574 221.531C83.9778 221.57 86.5982 221.296 89.2187 221.257C90.04 221.178 90.744 221.217 91.6827 221.217Z" fill="white"/>
<path d="M103.18 33.4121C102.359 33.3337 101.851 32.667 101.147 32.3533C98.2524 30.9807 95.2409 30.118 92.1511 29.4121C88.5529 28.5886 84.8373 28.3533 81.2391 27.6082C78.8142 27.0984 76.3502 27.0199 73.8862 26.8631C67.5111 26.3925 61.136 26.3533 54.7609 26.8631C52.2186 27.0591 49.6764 27.1376 47.1733 27.765C47.056 27.8043 46.9386 27.7258 46.8213 27.6866C47.056 27.1768 47.5644 27.216 47.9555 27.0984C51.984 26.2748 56.0124 25.4121 60.08 24.7062C61.84 24.3925 63.6782 24.3925 65.4773 24.3532C70.0142 24.1572 74.5511 24.0395 79.088 24.4317C83.2338 24.7846 87.3796 25.2944 91.3298 26.8239C92.7378 27.3729 94.1458 27.8435 95.5538 28.3533C97.7831 29.1768 99.8169 30.4317 101.772 31.7259C102.398 32.118 102.907 32.7063 103.454 33.1768C103.493 33.4121 103.454 33.569 103.18 33.4121Z" fill="#FEFEFE"/>
<path d="M81.3215 18.5099C80.109 20.0001 78.8966 21.1765 77.9188 22.5099C77.4495 23.1373 76.7846 23.1373 76.1197 23.0589C73.773 22.6668 71.3873 22.7452 69.0406 22.8236C67.1241 22.902 65.1686 23.0197 63.2521 23.1373C62.9392 23.1373 62.6655 23.255 62.4308 22.9413C61.4139 21.5687 60.3579 20.2354 59.1846 18.6667C66.6548 17.1373 73.8904 16.8236 81.3215 18.5099Z" fill="#31C77F"/>
<path d="M94.7336 212.943C94.89 214.668 94.6945 216.198 94.4598 217.727C94.2251 219.061 93.9905 219.296 92.6607 219.374C91.0571 219.453 89.4145 219.453 87.8109 219.492C86.3247 219.531 84.8385 219.57 83.3522 219.727C81.5531 219.963 79.754 219.806 77.9549 219.884C76.8207 219.923 76.8989 219.845 76.4687 218.786C76.1167 218.002 75.9993 217.178 76.0384 216.355C76.0384 215.57 76.234 215.335 77.0162 215.257C79.05 215.1 81.1229 214.982 83.1567 214.786C85.1905 214.59 87.2242 214.237 89.258 213.845C91.018 213.57 92.8171 213.296 94.7336 212.943Z" fill="#A7A9AC"/>
<path d="M67.0018 219.923C66.1414 220.002 65.3201 220.119 64.5378 220.08C62.3085 220.041 60.0792 219.963 57.8107 220.002C56.7547 220.002 55.6987 220.002 54.6427 220.041C54.2516 220.041 53.8605 220.08 53.4694 220.08C52.1396 219.963 51.7094 219.61 51.4747 218.316C51.2792 217.139 51.1618 215.963 51.0836 214.786C51.0054 213.884 51.1227 213.767 52.0223 213.884C54.2125 214.159 56.3636 214.394 58.5538 214.747C60.5876 215.061 62.6605 215.296 64.7334 215.217C66.1414 215.178 67.5494 215.335 68.9574 215.453C70.0525 215.531 70.0525 215.649 70.0525 216.747C70.0525 217.649 69.7396 218.472 69.6223 219.335C69.5832 219.767 69.2703 219.923 68.9183 219.963C68.2534 220.002 67.5885 220.119 67.0018 219.923Z" fill="#A7A9AC"/>
<path d="M85.1513 142.08C84.9949 138.903 84.9166 136.236 84.682 133.57C84.4473 130.903 84.1344 128.236 83.5477 125.648C83.4304 125.021 83.5477 124.746 84.1344 124.589C85.1122 124.354 86.0899 124.079 87.0677 123.805C87.6935 123.648 87.6935 124.158 87.8108 124.472C88.2411 126.04 88.5931 127.609 88.6713 129.256C88.8277 132.04 89.258 134.825 89.5709 137.609C89.8446 139.883 89.9619 142.119 89.5317 144.393C89.3362 145.374 89.0233 146.236 87.9673 146.629C86.8722 147.021 86.2073 146.785 85.7771 145.727C85.2295 144.393 85.3077 142.942 85.1513 142.08Z" fill="#808285"/>
<path d="M51.0063 25.0983C48.8161 25.8434 48.8552 25.8434 48.1903 23.8826C47.2125 20.9414 46.7823 17.8825 46.4303 14.8237C46.3521 14.0394 46.3521 13.2158 46.5085 12.4315C46.8214 10.7844 47.9165 10.2354 49.4418 11.0197C50.4978 11.5688 51.4365 12.3139 52.297 13.1374C54.9174 15.6472 57.1859 18.4316 59.2979 21.412C59.7672 22.0786 60.2365 22.7845 60.7059 23.4904C59.8063 23.9218 58.9068 23.8042 58.0854 24.0394C57.4987 24.1963 57.3423 23.7257 57.1076 23.3336C56.0516 21.412 54.6827 19.6473 53.2356 18.0002C52.649 17.3335 52.0232 16.7061 51.2801 16.2355C50.2241 15.5688 49.481 15.8825 49.3636 17.1374C49.2072 18.5884 49.3636 20.0394 49.7547 21.4512C50.0676 22.6669 50.4979 23.8434 51.0063 25.0983Z" fill="#FEFEFE"/>
<path d="M58.3207 130.158C58.2425 132.276 57.9687 134.276 58.0469 136.315C58.086 137.452 57.9687 138.59 58.0469 139.766C58.1252 141.452 57.8514 143.099 57.8123 144.786C57.8123 145.178 57.6949 145.57 57.5776 145.962C57.382 146.511 57.3429 147.256 56.5607 147.335C55.7003 147.413 54.8789 147.256 54.3314 146.511C53.9403 145.962 53.7056 145.374 53.5883 144.707C53.158 142.354 53.3536 139.962 53.4709 137.609C53.5883 135.256 53.8229 132.864 54.0185 130.511C54.0967 129.531 54.1358 129.57 55.0354 129.727C56.0131 129.805 57.1083 129.962 58.3207 130.158Z" fill="#808285"/>
<path d="M79.9884 23.2158C79.9492 22.7059 80.3012 22.5099 80.5359 22.2354C83.391 18.9412 86.6373 16.0392 90.0399 13.2941C90.4701 12.9412 90.9395 12.5882 91.487 12.3921C92.6995 11.8823 93.3644 12.2745 93.4817 13.5686C93.599 15.0588 93.4817 16.549 93.1688 18.0392C92.6604 20.353 91.8781 22.6275 90.8612 24.7844C90.7439 25.0589 90.6657 25.4511 90.2746 25.3726C89.8444 25.2942 89.375 25.255 89.023 24.9805C88.8275 24.8236 88.9839 24.5883 89.0621 24.353C89.4533 23.1373 89.9226 21.9608 90.1573 20.7059C90.2746 20 90.3919 19.2942 90.3137 18.5883C90.1963 17.2549 89.2577 16.7843 88.2017 17.5687C87.0284 18.4706 85.9333 19.4902 84.9555 20.6667C84.3297 21.4118 83.7039 22.1569 83.1563 22.9412C82.7652 23.4903 82.335 23.6863 81.7092 23.5295C81.2008 23.4118 80.6141 23.3334 79.9884 23.2158Z" fill="#FEFEFE"/>
<path d="M19.6407 121.177C20.0319 123.06 20.3839 124.825 20.7359 126.589C21.2052 129.06 21.6354 131.491 22.1439 133.962C22.6132 136.236 23.0825 138.511 23.5519 140.785C23.7865 141.923 23.7474 141.962 22.6523 142.472C22.3394 142.629 22.0265 142.746 21.6354 142.903C21.2052 142.119 21.2052 141.217 21.0488 140.393C20.3448 137.06 19.6799 133.687 19.0541 130.315C18.5456 127.687 18.1154 125.06 17.607 122.432C17.5288 122.001 17.5679 121.727 18.0372 121.687C18.5847 121.609 19.0541 121.413 19.6407 121.177Z" fill="#FDFDFD"/>
<path d="M56.3669 24.2747C55.1545 24.51 53.9421 24.706 52.7296 24.9021C52.2994 24.9806 51.9865 24.9806 51.7909 24.4708C50.8914 22.3531 49.9918 20.2354 49.9918 17.8825C49.9918 17.4511 49.8354 16.9021 50.3047 16.706C50.774 16.5099 51.0869 16.9805 51.3607 17.2942C53.1598 19.3335 54.9198 21.4511 56.2887 23.8433C56.3278 23.9609 56.3278 24.0786 56.3669 24.2747Z" fill="#FEFEFE"/>
<path d="M83.8213 23.961C85.3075 21.6865 86.7546 19.6865 89.1013 18.3923C89.4533 18.9414 89.4142 19.4904 89.336 20.0394C89.1013 21.4904 88.5537 22.8237 88.0062 24.1571C87.8106 24.5885 87.576 24.7845 87.1066 24.6669C86.0506 24.4316 84.9946 24.1963 83.8213 23.961Z" fill="#FDFDFD"/>
<path d="M71.3056 121.687C72.6354 121.648 73.926 122.942 73.9651 124.315C73.9651 125.334 73.1829 126.04 72.0487 126.08C70.3669 126.119 69.1545 125.178 69.1153 123.884C69.0762 122.707 70.0931 121.727 71.3056 121.687Z" fill="#31C77F"/>
<path d="M50.3027 29.2159C50.8112 28.9021 51.2805 28.9414 51.7107 28.9022C52.7667 28.8237 53.3143 29.1767 53.6663 30.1571C53.7445 30.4316 53.6663 30.5492 53.549 30.7453C53.1579 31.412 52.7276 32.0786 52.2974 32.7845C51.5152 31.6473 50.9676 30.4708 50.3027 29.2159Z" fill="#F6F6F6"/>
<path d="M88.0453 30.5887C87.6933 31.2554 87.3413 31.8828 86.8328 32.4318C86.4026 32.0397 86.2462 31.5691 86.0506 31.1769C85.8159 30.6671 86.0897 30.2357 86.6764 30.1965C86.8328 30.1965 87.0284 30.2358 87.1848 30.2358C87.4977 30.3142 87.7715 30.3534 88.0453 30.5887Z" fill="#EAEAEA"/>
<path d="M55.4657 45.6474C55.4657 46.0395 55.3875 46.4317 54.9572 46.5101C54.527 46.5885 54.0186 46.1179 53.9795 45.6474C53.9403 45.1768 54.1359 44.863 54.6443 44.863C55.1919 44.863 55.4266 45.216 55.4657 45.6474Z" fill="#E5E5E5"/>
<path d="M82.3733 46.3533C82.0213 46.3141 81.7085 46.1572 81.6302 45.7651C81.5911 45.4513 81.7084 45.0984 82.0604 45.0984C82.4907 45.0984 82.8036 45.3337 82.8427 45.8043C82.8427 46.0788 82.6862 46.2749 82.3733 46.3533Z" fill="#C9C9C9"/>
<path d="M55.114 28.5884C54.8402 29.1374 54.762 29.5296 54.2927 29.4119C54.0971 29.3727 53.9407 29.0982 54.058 28.8629C54.2927 28.4315 54.6838 28.7452 55.114 28.5884Z" fill="#BEBEBE"/>
<path d="M103.182 33.4121C103.26 33.3336 103.338 33.2552 103.455 33.1768C103.807 33.2552 103.964 33.4905 104.042 33.8827C103.651 33.8827 103.377 33.7258 103.182 33.4121Z" fill="#A6A6A6"/>
<path d="M83.5096 156.903C83.5878 158.943 83.0011 160.903 81.9842 162.747C80.498 165.413 78.3078 167.1 75.1789 167.57C72.2847 168.002 69.5469 167.452 67.0438 166.119C64.658 164.825 63.4847 162.59 62.898 160.001C62.546 158.354 62.5851 156.668 62.898 155.021C63.0935 154.001 63.25 153.845 64.2669 153.805C65.362 153.727 66.4571 153.648 67.5522 153.688C70.642 153.727 73.6927 153.648 76.7433 154.08C78.1905 154.276 79.6376 154.197 81.0847 154.237C81.6713 154.237 82.2189 154.237 82.8056 154.315C83.314 154.394 83.7051 154.55 83.5487 155.256C83.4313 155.727 83.666 156.276 83.5096 156.903Z" fill="#020202"/>
<path d="M75.7261 50.0005C75.7261 50.1181 75.7261 50.1573 75.7261 50.1965C75.687 51.6868 76.1172 52.7456 77.095 53.7652C78.5812 55.3338 78.4247 57.8437 76.743 59.1378C76.2345 59.53 75.8825 59.9613 75.7652 60.5888C75.687 60.9025 75.4914 61.2555 75.2959 61.53C73.8878 63.3339 71.9323 64.0006 69.7812 63.6869C67.6692 63.3731 66.0265 62.1967 65.4789 59.9613C65.3616 59.53 65.1269 59.2947 64.8141 59.0594C62.4674 57.2554 62.5456 54.3927 65.0878 52.8632C65.8309 52.4319 65.9092 52.0005 65.7136 51.2946C65.5181 50.5103 65.4007 49.7652 65.6354 48.9416C66.1047 47.2554 67.7474 46.3926 69.351 47.1377C70.0158 47.4514 70.407 47.5691 71.111 46.9808C72.4407 45.8828 74.8265 46.7848 75.4914 48.471C75.6087 48.9809 75.7652 49.4907 75.7261 50.0005Z" fill="#030303"/>
<path d="M86.0125 144.393C85.9734 143.452 86.5992 142.824 87.5378 142.824C88.3983 142.824 89.024 143.491 89.024 144.432C89.024 145.177 88.2418 145.962 87.5378 145.962C86.8338 145.923 86.0516 145.099 86.0125 144.393Z" fill="#0D0D0C"/>
<path d="M55.7003 143.334C56.4825 143.334 57.1474 144.04 57.1474 144.864C57.1474 145.57 56.3261 146.433 55.6612 146.472C54.9572 146.472 54.0967 145.727 54.0576 145.021C54.0576 144.08 54.7616 143.374 55.7003 143.334Z" fill="#0F0E0E"/>
<path d="M70.5625 155.178C73.6132 155.099 76.9767 155.57 80.3794 155.452C80.8487 155.452 81.3572 155.491 81.8265 155.491C82.2176 155.491 82.335 155.727 82.335 156.08C82.335 159.687 81.279 162.864 78.3065 165.138C77.0158 166.119 75.4123 166.55 73.8478 166.511C71.9705 166.472 70.0932 166.354 68.3332 165.452C66.3385 164.433 65.0087 162.903 64.3438 160.785C63.7572 159.021 63.718 157.256 63.9918 155.452C64.07 154.982 64.2265 154.903 64.6567 154.903C66.534 155.021 68.4114 154.942 70.5625 155.178Z" fill="#A7A9AC"/>
<path d="M67.6688 58.8241C66.9648 58.8633 66.339 58.6672 65.7523 58.3535C64.3052 57.5692 63.9532 55.9613 64.9701 54.6672C65.4003 54.0789 65.9479 53.6476 66.5737 53.3338C67.3559 52.9809 67.3559 52.9417 67.043 52.1181C66.8866 51.726 66.7301 51.2946 66.6128 50.8632C66.4563 50.3142 66.4563 49.726 66.6519 49.1769C67.043 47.8828 68.0599 47.4907 69.2332 48.1965C69.2723 48.2358 69.3114 48.2358 69.3506 48.275C69.7808 48.5103 70.0154 49.0593 70.563 49.0201C71.1106 48.9809 71.267 48.3926 71.619 48.0789C72.1274 47.6083 72.7532 47.5299 73.3399 47.726C74.0439 47.9612 74.5132 48.4711 74.6306 49.2554C74.7479 50.1181 74.5132 50.9025 74.2785 51.726C74.2003 52.0397 74.0439 52.3142 73.9657 52.5887C73.8483 52.9809 73.9657 53.2946 74.3959 53.3731C74.5915 53.4123 74.8261 53.4907 75.0217 53.5299C76.6643 53.6083 77.6421 55.9221 76.7817 57.6084C76.3514 58.4711 75.6083 58.9025 74.5915 58.7849C73.4181 58.628 72.4012 58.2358 71.6581 57.2162C71.0323 56.3535 70.6412 56.3927 70.211 57.3731C69.6634 58.5496 68.7639 58.8633 67.6688 58.8241Z" fill="white"/>
<path d="M71.033 58.2751C72.3628 59.334 72.3628 59.334 74.8659 59.883C74.6312 61.4516 73.3014 62.5105 71.1894 62.785C69.1948 63.0595 67.3565 61.9615 66.4961 59.9614C68.2561 60.1183 69.9379 60.0791 71.033 58.2751Z" fill="#FCFCFC"/>
<path d="M88.3574 144.432C88.3574 144.746 87.7708 145.217 87.4188 145.177C87.0277 145.138 86.5583 144.55 86.6366 144.119C86.7539 143.648 87.145 143.609 87.5361 143.57C87.9272 143.57 88.3965 144.079 88.3574 144.432Z" fill="#E7E7E7"/>
<path d="M55.7384 144.158C56.1295 144.236 56.5207 144.393 56.4815 144.903C56.4033 145.334 56.2078 145.727 55.6602 145.727C55.1909 145.727 54.8389 145.374 54.8389 144.903C54.878 144.354 55.2691 144.197 55.7384 144.158Z" fill="#EAEAEA"/>
<path d="M66.8867 156.786C70.7978 156.55 74.7089 156.393 78.5809 157.138C78.5027 157.491 78.3072 157.609 78.0725 157.648C74.3178 157.727 70.5632 157.531 66.8867 156.786Z" fill="#070706"/>
<path d="M73.0255 50.5104C72.9473 50.8241 72.9473 51.177 72.6735 51.4515C72.3606 51.726 72.0477 51.726 71.774 51.3731C71.422 50.9025 71.774 49.7653 72.2824 49.5692C72.7126 49.4515 73.0646 49.8829 73.0255 50.5104Z" fill="#262626"/>
<path d="M69.3497 51.2162C69.3497 51.4907 69.2715 51.6868 69.0369 51.7652C68.8022 51.8828 68.5675 51.726 68.4893 51.5691C68.2155 51.1377 67.9026 50.6671 68.0982 50.1181C68.1764 49.8828 68.4111 49.7652 68.6458 49.8828C69.1542 50.1966 69.1542 50.7848 69.3497 51.2162Z" fill="#262626"/>
</svg>
